<svg xmlns:svg="http://www.w3.org/2000/svg" 
     xmlns="http://www.w3.org/2000/svg"
     width="108" 
     height="85" 
     version="1.1">
  <g class="currentLayer" style=""><title>Layer 1</title>
    <path style="fill:#2a7fff;stroke-width:0.218968" id="path225" d="m24.970370439754483,17.241701 c-1.353307,2.679565 -2.757718,5.33701 -4.144563,8.002585 c-1.7589900000000007,3.4552389999999997 -3.398097,6.952631 -4.880794,10.51024 c-1.272359,3.195202 -2.716193,6.561744 -3.930354,9.547696 c-1.214161,2.985952 -2.489007,5.620227 -3.5805730000000002,8.286562 c-1.091566,2.666335 -2.411506,5.39187 -3.3873830000000003,7.560318 c-0.975877,2.168448 -1.532538,4.400656 -2.020938,5.24474 c-0.4884000000000015,0.8440840000000006 0.276781,-0.523607 0.08479000000000081,-0.22807000000000024 c-0.19199100000000138,0.29554 3.1143710000000002,-8.211792 -0.08479000000000081,0.22807000000000024 c-3.199161,8.439862 8.310204,14.352639 12.339748,6.745711 c2.478704,-5.936227 -0.833485,2.6778750000000002 3.370668,-7.8951150000000005 c0.786933,-2.004938 1.7543990000000007,-4.624293 2.810242,-7.220848 c1.055843,-2.596555 2.386485,-5.3328500000000005 3.597491,-8.327002 c1.211006,-2.994155 2.656513,-6.350944 3.9291869999999998,-9.544926 c1.351614,-3.249102 2.850828,-6.440694 4.454034,-9.596836 c1.466245,-2.823835 2.959489,-5.63584 4.3789620000000005,-8.479092 c3.811222,-8.203645 -9.124497,-13.0376774 -12.93572,-4.834033 z"/>
    <path style="fill:#ff2a2a;stroke-width:0.264583" id="path251" d="m24.88813143975449,23.809752 c0.6965580000000033,1.983811 1.344724,3.983619 1.98673,5.985637 c1.068586,3.232372 2.009449,6.504874 3.063878,9.741766 c0.7824019999999995,2.219128 1.588436,4.434063 2.47242,6.615401 c0.3375100000000023,0.846287 0.572542,1.467511 0.851124000000003,2.184468 c-0.00810000000000003,0.027600000000000183 -0.104788,-0.2953670000000003 -0.08513000000000064,-0.21942700000000104 c0.144881,0.559814 0.3096660000000015,1.118901 0.472355,1.6733980000000006 c0.004800000000000034,0.02210000000000014 0.009700000000000106,0.04430000000000033 0.014580000000000076,0.06650000000000043 c-0.0024000000000000184,-0.00012000000000000107 -0.004600000000000003,-0.0002300000000000015 -0.006900000000000069,-0.0002700000000000028 c0.09073000000000085,0.30724 0.1780330000000004,0.615517 0.272198,0.9217270000000006 c0.03853000000000011,0.125277 0.16567900000000021,0.4974070000000003 0.12199400000000046,0.3738170000000017 c-0.018310000000000055,-0.05180000000000032 -0.03374000000000001,-0.10461000000000002 -0.050610000000000446,-0.15691000000000138 c0.15590900000000124,0.6577070000000039 0.39211800000000196,1.290624 0.6268640000000006,1.922898 c4.051726,10.59064 19.029238,4.860663 14.97751,-5.729967 v0 c-0.09186000000000062,-0.17261700000000021 0.03471000000000029,0.12658 -0.04223000000000025,-0.06310000000000042 c-0.18604200000000104,-0.6988540000000053 -0.1340380000000002,-0.5427270000000006 -0.3320550000000003,-1.157891 c-0.0182,-0.05660000000000027 -0.06726000000000072,-0.22718000000000024 -0.05807000000000025,-0.16849000000000153 c0.01892000000000005,0.12082000000000002 0.11730000000000022,0.4749270000000003 0.08749000000000068,0.3563170000000008 c-0.22345600000000124,-0.8891440000000039 -0.07858000000000002,-0.360747 -0.31488300000000197,-1.180664 c0.01569000000000005,0.06720000000000058 0.0649900000000005,0.2680700000000003 0.04708000000000001,0.20147 c-0.21959900000000124,-0.816704000000003 -0.39281100000000196,-1.537181 -0.6758700000000053,-2.364405 c-0.34054800000000185,-0.8998770000000039 -0.6771350000000039,-1.740551 -1.054135,-2.708975 c-0.749382,-1.824821 -1.408395,-3.6883290000000004 -2.079357,-5.54259 c-1.050452,-3.209152 -1.972027,-6.459014 -3.038436,-9.663136 c-0.705003,-2.197145 -1.418365,-4.391413 -2.185828,-6.567681 c-3.875122,-10.6565285 -18.94581,-5.1763 -15.070688,5.480217 z"/>
    <path style="fill:#ffd42a;stroke-width:0.264583" id="path275" d="M49.52552343975448,54.989268 C52.06854443975449,51.223539 54.63185443975449,47.47038 57.23335443975449,43.744661 C60.52808343975448,39.088378 63.74477143975449,34.377355 66.93368043975448,29.648169 C68.87722443975449,26.813127 70.70954943975448,23.902612 72.45139343975448,20.93984 C78.18875643975448,11.159194 64.35676043975448,3.0453772 58.61939843975449,12.826035000000001 v0 c-1.566172,2.677325 -3.229939,5.29833 -4.982258,7.8577650000000006 c-3.139882,4.658026 -6.30895,9.296929 -9.553675,13.882722 c-2.776469,3.979419 -5.526228,7.979435 -8.215281,12.018271 c-5.942891,9.657146000000001 7.714448,18.061618 13.657339,8.404475 z"/>
    <path style="fill:#00d455;stroke-width:0.265859" id="path307" d="m58.82474143975449,19.797591 c1.9137240000000002,4.384599 3.574355,8.871792 5.230953,13.354245 c1.166612,3.2604480000000002 2.407317,6.496142 3.4378480000000002,9.801305 c0.3442870000000017,1.203191 0.593419,2.571119 0.977777,3.761067 c1.4206400000000001,3.895975 1.990113,5.941699 5.921824,7.2621 c0.954862,0.3206730000000003 3.6243600000000002,0.17029800000000092 4.628318,0.273502 c1.676886,0.172384 14.474723000000001,-0.11654800000000012 16.363433,-0.12329000000000062 c8.887270000000001,-0.03172000000000001 0.3432100000000017,0.103418 4.84841,0.003500000000000025 c7.545,-3.501513 7.75098,-12.374737 0.5791700000000006,-17.011334 l-4.08755,-0.0054000000000000315 c0,0 -6.00023,0.044650000000000446 -10.89788,0.026370000000000223 c-0.980571999999997,-0.04047000000000001 -1.96157,-0.07189000000000002 -2.9417050000000002,-0.121369 c-4.496207,-1.62836 2.3449850000000003,7.490859 0.1780040000000004,0.210295000000001 C81.94651243975449,33.672111 80.63614043975448,31.232242 79.36828443975449,27.725477 C77.56429743975448,22.846982 75.75515243975448,17.963091 73.64982143975449,13.199893 C68.88486043975449,2.9363498000000003 54.05978143975449,9.5340083 58.82474143975449,19.797551 z" class=""/>
  </g>
</svg>