<?xml version="1.0" encoding="UTF-8" standalone="no"?>
<svg
   width="106"
   height="90"
   viewBox="0 0 106 90"
   version="1.1"
   id="svg117"
   inkscape:version="1.2.2 (732a01da63, 2022-12-09)"
   sodipodi:docname="mLogo.svg"
   xmlns:inkscape="http://www.inkscape.org/namespaces/inkscape"
   xmlns:sodipodi="http://sodipodi.sourceforge.net/DTD/sodipodi-0.dtd"
   xmlns="http://www.w3.org/2000/svg"
   xmlns:svg="http://www.w3.org/2000/svg"
   xmlns:rdf="http://www.w3.org/1999/02/22-rdf-syntax-ns#"
   xmlns:cc="http://creativecommons.org/ns#"
   xmlns:dc="http://purl.org/dc/elements/1.1/">
  <defs
     id="defs111">
    <rect
       x="178.26877"
       y="169.44888"
       width="81.784477"
       height="4.2763124"
       id="rect317" />
    <rect
       x="80.982666"
       y="153.4127"
       width="114.65863"
       height="34.477768"
       id="rect311" />
  </defs>
  <sodipodi:namedview
     id="base"
     pagecolor="#ffffff"
     bordercolor="#666666"
     borderopacity="1.0"
     inkscape:pageopacity="0.0"
     inkscape:pageshadow="2"
     inkscape:zoom="1.979899"
     inkscape:cx="238.396"
     inkscape:cy="127.7843"
     inkscape:document-units="mm"
     inkscape:current-layer="layer1"
     inkscape:document-rotation="0"
     showgrid="false"
     inkscape:window-width="2560"
     inkscape:window-height="1369"
     inkscape:window-x="1912"
     inkscape:window-y="-8"
     inkscape:window-maximized="1"
     inkscape:showpageshadow="2"
     inkscape:pagecheckerboard="0"
     inkscape:deskcolor="#d1d1d1" />
  <metadata
     id="metadata114">
    <rdf:RDF>
      <cc:Work
         rdf:about="">
        <dc:format>image/svg+xml</dc:format>
        <dc:type
           rdf:resource="http://purl.org/dc/dcmitype/StillImage" />
      </cc:Work>
    </rdf:RDF>
  </metadata>
  <g
     inkscape:label="Capa 1"
     inkscape:groupmode="layer"
     id="layer1">
    <path
       style="fill:#2a7fff;stroke-width:0.218968"
       id="path225"
       d="m 23.805536,17.241701 c -1.353307,2.679565 -2.757718,5.33701 -4.144563,8.002585 -1.75899,3.455239 -3.398097,6.952631 -4.880794,10.51024 -1.272359,3.195202 -2.716193,6.561744 -3.930354,9.547696 -1.214161,2.985952 -2.489007,5.620227 -3.580573,8.286562 -1.091566,2.666335 -2.411506,5.39187 -3.387383,7.560318 -0.975877,2.168448 -1.532538,4.400656 -2.020938,5.24474 -0.4884,0.844084 0.276781,-0.523607 0.08479,-0.22807 -0.191991,0.29554 3.114371,-8.211792 -0.08479,0.22807 -3.199161,8.439862 8.310204,14.352639 12.339748,6.745711 2.478704,-5.936227 -0.833485,2.677875 3.370668,-7.895115 0.786933,-2.004938 1.754399,-4.624293 2.810242,-7.220848 1.055843,-2.596555 2.386485,-5.33285 3.597491,-8.327002 1.211006,-2.994155 2.656513,-6.350944 3.929187,-9.544926 1.351614,-3.249102 2.850828,-6.440694 4.454034,-9.596836 1.466245,-2.823835 2.959489,-5.63584 4.378962,-8.479092 3.811222,-8.203645 -9.124497,-13.0376774 -12.93572,-4.834033 z"
       sodipodi:nodetypes="scczzzzzzcczzcccss" />
    <path
       style="fill:#ff2a2a;stroke-width:0.264583"
       id="path251"
       d="m 23.723297,23.809752 c 0.696558,1.983811 1.344724,3.983619 1.98673,5.985637 1.068586,3.232372 2.009449,6.504874 3.063878,9.741766 0.782402,2.219128 1.588436,4.434063 2.47242,6.615401 0.33751,0.846287 0.572542,1.467511 0.851124,2.184468 -0.0081,0.0276 -0.104788,-0.295367 -0.08513,-0.219427 0.144881,0.559814 0.309666,1.118901 0.472355,1.673398 0.0048,0.0221 0.0097,0.0443 0.01458,0.0665 -0.0024,-1.2e-4 -0.0046,-2.3e-4 -0.0069,-2.7e-4 0.09073,0.30724 0.178033,0.615517 0.272198,0.921727 0.03853,0.125277 0.165679,0.497407 0.121994,0.373817 -0.01831,-0.0518 -0.03374,-0.10461 -0.05061,-0.15691 0.155909,0.657707 0.392118,1.290624 0.626864,1.922898 4.051726,10.59064 19.029238,4.860663 14.97751,-5.729967 v 0 c -0.09186,-0.172617 0.03471,0.12658 -0.04223,-0.0631 -0.186042,-0.698854 -0.134038,-0.542727 -0.332055,-1.157891 -0.0182,-0.0566 -0.06726,-0.22718 -0.05807,-0.16849 0.01892,0.12082 0.1173,0.474927 0.08749,0.356317 -0.223456,-0.889144 -0.07858,-0.360747 -0.314883,-1.180664 0.01569,0.0672 0.06499,0.26807 0.04708,0.20147 -0.219599,-0.816704 -0.392811,-1.537181 -0.67587,-2.364405 -0.340548,-0.899877 -0.677135,-1.740551 -1.054135,-2.708975 -0.749382,-1.824821 -1.408395,-3.688329 -2.079357,-5.54259 -1.050452,-3.209152 -1.972027,-6.459014 -3.038436,-9.663136 -0.705003,-2.197145 -1.418365,-4.391413 -2.185828,-6.567681 -3.875122,-10.6565285 -18.94581,-5.1763 -15.070688,5.480217 z" />
    <path
       style="fill:#ffd42a;stroke-width:0.264583"
       id="path275"
       d="M 48.360689,54.989268 C 50.90371,51.223539 53.46702,47.47038 56.06852,43.744661 59.363249,39.088378 62.579937,34.377355 65.768846,29.648169 67.71239,26.813127 69.544715,23.902612 71.286559,20.93984 77.023922,11.159194 63.191926,3.0453772 57.454564,12.826035 v 0 c -1.566172,2.677325 -3.229939,5.29833 -4.982258,7.857765 -3.139882,4.658026 -6.30895,9.296929 -9.553675,13.882722 -2.776469,3.979419 -5.526228,7.979435 -8.215281,12.018271 -5.942891,9.657146 7.714448,18.061618 13.657339,8.404475 z" />
    <path
       sodipodi:nodetypes="scccsssccsccccccs"
       style="fill:#00d455;stroke-width:0.265859"
       id="path307"
       d="m 57.659907,19.797591 c 1.913724,4.384599 3.574355,8.871792 5.230953,13.354245 1.166612,3.260448 2.407317,6.496142 3.437848,9.801305 0.344287,1.203191 0.593419,2.571119 0.977777,3.761067 1.42064,3.895975 1.990113,5.941699 5.921824,7.2621 0.954862,0.320673 3.62436,0.170298 4.628318,0.273502 1.676886,0.172384 14.474723,-0.116548 16.363433,-0.12329 8.88727,-0.03172 0.34321,0.103418 4.84841,0.0035 7.545,-3.501513 7.75098,-12.374737 0.57917,-17.011334 l -4.08755,-0.0054 c 0,0 -6.00023,0.04465 -10.89788,0.02637 -0.980572,-0.04047 -1.96157,-0.07189 -2.941705,-0.121369 -4.496207,-1.62836 2.344985,7.490859 0.178004,0.210295 C 80.781678,33.672111 79.471306,31.232242 78.20345,27.725477 76.399463,22.846982 74.590318,17.963091 72.484987,13.199893 67.720026,2.9363498 52.894947,9.5340083 57.659907,19.797551 Z" />
  </g>
</svg>
